<?xml version="1.0" standalone="no"?>
<!DOCTYPE svg PUBLIC "-//W3C//DTD SVG 20010904//EN"
 "http://www.w3.org/TR/2001/REC-SVG-20010904/DTD/svg10.dtd">
<svg version="1.0" xmlns="http://www.w3.org/2000/svg"
 width="320.000000pt" height="320.000000pt" viewBox="0 0 320.000000 320.000000"
 preserveAspectRatio="xMidYMid meet">
<metadata>
Created by potrace 1.11, written by Peter Selinger 2001-2013
</metadata>
<g transform="translate(0.000000,320.000000) scale(0.100000,-0.100000)"
fill="#000000" stroke="none">
<path d="M488 3143 c158 -234 507 -811 497 -821 -4 -4 -9 -2 -11 3 -10 25
-104 159 -104 147 0 -8 -87 -127 -192 -265 -106 -139 -302 -395 -435 -571
l-243 -318 0 -659 0 -659 53 0 52 1 197 437 c109 240 268 592 354 782 363 802
489 1088 482 1095 -3 3 -35 7 -71 8 -43 1 -60 5 -50 11 8 4 275 12 592 17 317
4 592 11 611 14 l35 7 -31 -30 c-24 -22 -38 -28 -58 -25 -31 6 -33 -2 -7 -25
20 -18 253 -299 446 -536 181 -225 431 -530 518 -635 l77 -93 0 340 0 340
-267 218 c-281 230 -535 447 -592 507 l-33 35 53 101 c29 55 55 98 58 97 101
-59 468 -253 586 -311 88 -42 168 -82 178 -87 16 -8 17 4 17 194 l0 204 -82
28 c-238 81 -517 180 -545 195 l-32 16 60 110 c32 61 59 105 59 99 0 -7 25
-14 58 -17 31 -2 111 -14 177 -26 138 -25 287 -51 298 -51 4 0 7 41 7 90 l0
90 -243 0 c-181 0 -246 -3 -256 -12 -11 -10 -13 -10 -7 0 6 9 -221 12 -1119
12 l-1126 0 39 -57z"/>
<path d="M385 3165 c-22 -7 -89 -20 -150 -29 -60 -10 -138 -22 -172 -28 l-63
-10 0 -104 c0 -57 2 -104 5 -104 29 0 478 140 491 153 6 6 -56 137 -64 136 -4
0 -25 -6 -47 -14z"/>
<path d="M460 2798 c-80 -44 -216 -118 -303 -165 l-157 -85 0 -239 c0 -131 3
-239 6 -239 6 0 352 279 539 434 55 46 123 100 150 121 28 21 51 39 53 40 2 2
-26 47 -62 100 -36 54 -66 102 -66 106 0 14 -8 11 -160 -73z"/>
<path d="M1792 2330 c-18 -4 -35 -10 -38 -13 -3 -2 18 -74 45 -158 57 -176
184 -623 296 -1039 42 -157 91 -339 110 -405 33 -116 68 -243 156 -562 l42
-153 359 0 359 0 -6 23 c-4 12 -15 36 -25 52 -9 17 -266 524 -570 1129 -401
797 -549 1101 -541 1109 6 6 11 15 11 19 0 10 -154 9 -198 -2z"/>
<path d="M1411 2308 c-4 -13 -11 -45 -15 -73 -23 -161 -132 -746 -301 -1621
-63 -325 -115 -596 -115 -602 0 -9 85 -12 340 -12 l341 0 -5 48 c-3 26 -8 126
-11 222 -7 226 -23 708 -30 875 -14 389 -26 899 -23 1033 l3 152 -88 0 c-82 0
-88 -2 -96 -22z"/>
</g>
</svg>
